<?xml version="1.0" encoding="utf-8"?>
<!-- Generator: Adobe Illustrator 21.0.0, SVG Export Plug-In . SVG Version: 6.00 Build 0)  -->
<svg version="1.1" xmlns="http://www.w3.org/2000/svg" xmlns:xlink="http://www.w3.org/1999/xlink" x="0px" y="0px"
	 viewBox="0 0 460.8 259.2" style="enable-background:new 0 0 460.8 259.2;" xml:space="preserve">
<style type="text/css">
	.st0{
	fill:#1565C0;
	}
	.st0:hover{
	fill: #1DE9B6;
	};
</style>
<g id="kaur">
	<path class="st0" d="M310.6,231.1l1,3.7l0.9,1.5l1,0.3l1.4-1.1l1.9,1.2l0.8,0.4l0.8,1.2c0.6,1.5,1.1,3.1,1.7,4.6h0.7l0.9-0.3l1-0.7
		l1.1-0.4l1.5,0l1.1,0.4l1.1,0.4l1.1,0.7l0.7,0.4c1,1,2,2,3,3h3l1.5,0.6l0.5-0.2l0.6-0.4c0.4-0.1,1-0.2,1.3-0.3
		c2.3-1.6,3.5-2.4,5.8-3.8l2.7-2l2.6-2.9l-0.5-1.4l-0.9-0.6l-1.8-1.1c-0.4-0.9-0.5-1-0.8-1.9v-1.4l-2.4-7.9l-0.3-0.9l-0.7-0.7
		l-1-3.1l-2.7-3.1l-0.7-1.4c-0.2-0.8-0.5-1.7-0.7-2.5l-0.7-7.6l-0.3-1.6l-0.6-0.6l-1-0.6l-0.9-0.3l-3.7-0.3h-1.4l-2.5-0.7l-3.8-2.7
		l-5.1-0.4c-3.4-1.3-3.5-1.4-6.9-3.5l-3.8-0.7l-0.3-0.2l-1,0.6l-2.5,1.9l-0.2,3.5l-4.3,3.8c-2.4,4.7-2,4.1-5.1,8.2l-1.4,3.1l0.1,3.5
		c6.9,4.5,12.5,8.4,18.5,14.4L310.6,231.1L310.6,231.1z"/>
</g>
<g id="bengkuluselatan">
	<path class="st0" d="M291.3,212.9l1.5-3.2l2.8-3.7l2.4-4.6l4.1-3.6l0.2-3.6c1.1-0.8,2.3-1.7,3.5-2.4l-1.3-0.7l-1.7-0.4l-0.6-0.3
		l-1.5,0.4l-1.2-2.4l-0.7-7.3l-0.3-1.7c-0.9-2.1-2.1-4.2-2.6-6.3l-1.3,0.3l-2.5,1.7c-1.1,0.8-1.2,0.9-2.3,1.4l-2.7,1.3
		c-3.8,2.2-3.5,2-7.5,3.5l-1.7-0.5l-0.8,1.3l-1,2.9l0.4,1.3l0.4,1.3l0,0l0,0l-2,1.5l-1.7,2.2l-0.1,1.7l0,1l-1.8,2.2l-2.3,0.8h-2.6
		l-0.7,0l7.6,6.4c1.3,2.2,1.4,2.6,2.4,5.2l1.3,1.3L288,214l3.3,2.1L291.3,212.9L291.3,212.9L291.3,212.9z"/>
</g>
<g id="seluma">
	<path class="st0" d="M272.1,193l0.1-1.9c0.4-0.4,0.7-0.9,1.1-1.4c0.3-0.4,0.4-0.6,0.6-0.8l0.3-0.4l1.7-1.2l-0.2-0.8l-0.5-1.5
		c0.4-1.1,0.8-2.2,1.2-3.2c0.4-0.6,0.8-1.3,1.2-1.9l2,0.5l3.5-1.3c2.6-1.5,3.8-2.1,6.4-3.3l0.7-0.3l1.5-1l2.6-1.9l1.5-0.3l-0.3-1.2
		l-0.3-0.6l-0.5-0.5h-0.7l-1-1h-1.2l-1,0.3h-7.2l-1.9,1.1l-4-3.2l-0.6-0.3l-1.6-0.3l-3,0.7l-1.5,0.4c-1.8-0.6-3.5-1.4-5.3-2.1
		l-1.8-0.7l-1.1-1.1l-2.1-3.4l-1-1c-1.6-1.1-3-2-4.5-3.1l-0.7-1.4l-1-1.3L251,152l-0.4-1.4l-1.7-0.6l-1.5,1.9h-2.3l-2.5,1.2
		c-0.9,0.2-1.9,0.4-2.8,0.6l-2.9-0.5l-1.1,1.8l-3.3-0.1l-2.5-0.8l-1.4,0.9l-0.8,2.4c-1.5,2.2-1.4,2-3.3,3.9v4.5l-0.4,0.7l1.7,1.2
		c5.6,3.8,11.1,8,16.5,12.1c8.4,5.9,14.7,10.3,22.3,16.7c1.5-0.1,2.6-0.1,4.1-0.1l1.9-0.7l1.5-1.8L272.1,193L272.1,193z"/>
</g>
<g id="bengkulukota">
	<polygon class="st0" points="228,154.3 229.6,153.3 229.3,150.4 228.3,147.9 227,145.5 226.8,143 225.6,143.1 224.1,144.2 
		222.1,143.8 221.5,145.6 219,147.7 219,148.5 220,149.7 222.8,152.9 223.2,154.8 222.8,156.7 221.1,159.4 220.8,160.7 221.4,163.6 
		223.4,165.9 223.4,165.9 223.7,165.5 223.7,160.9 225.7,158.8 227,156.9 227.9,154.4 	"/>
</g>
<g id="bengkulutengah">
	<path class="st0" d="M230.1,150.3l0.2,2.9l2.3,0.8l2.7,0.1l1.1-1.9l3.3,0.6l2.6-0.6l2.6-1.3h2.1l1.6-2l2.6,0.9l1.7-0.3l0.5-0.1
		c-1.8-2.4-1.6-2.2-3.1-5l-1.5-2.5l-0.7-3.4l-1.1-2.3l-2.2-4c-0.9-1.2-1.8-2.5-2.6-3.7l-1.6-0.7l-1.6,2.2c-1.2,0.3-2.4,0.6-3.6,0.9
		l-2.1,0.5c-2.5-0.2-4.4-0.4-6.9-0.7l-1.4,4.2c-0.8,1.4-1.6,2.7-2.4,4.1l-4.5,2.6l-0.6,0.6l0.1,0.4l0.3,0.9l0.7,0.7l0.4,1.2v1.3
		l1.7-1.5l0.8-2.3l2.4,0.5l1.3-1l2.2-0.3l0.3,3.2C228.7,147.1,229.3,148.3,230.1,150.3L230.1,150.3L230.1,150.3z"/>
</g>
<g id="kepahiang">
	<path class="st0" d="M249,138.4l0.7,3.3c1.1,1.9,1.9,3.3,2.9,5.2l1.8,2.4l1.4-0.3l1.3-0.6c4.1-3.8,8.1-7.9,12.4-11.4l2.1-0.7
		c0.9-0.7,1.6-1.3,2.5-1.9v-1.1l-0.3-0.9l-1.1-1.4v-1.4l-1.9-2.1l-2.3-0.5l-3.8-0.2l-5.2,0.1l-3.4,0.3l-2.2-2l-3.1,0.4l-3-1.4
		l-1.8-0.6l-1,1.4l-0.5,2.6l-1.1,1.4C245.8,132.2,247.2,134.6,249,138.4L249,138.4L249,138.4z"/>
</g>
<g id="rejanglebong">
	<path class="st0" d="M259.5,126c4.8-0.1,7.1-0.3,11.7,0.7l2,2.2h0.9l2.1,1h2.3l1-0.3c1.4,0,1.5,0.1,3,0.3l1.2-1.5l1-7.1
		c-0.3-1.6-0.7-3.4-0.7-5l-0.6-0.6l-0.3-0.7l-0.9-0.6l-0.9-0.3l-2.4-0.3l-1.7-0.7l-5.2-0.7l-1.1-0.7l-5.2-3.1l-0.8-1.1l-1-2.8
		l-0.3-0.5l-0.8-0.3l-1.2,0.3l-2,1.3l-3.8,2.7c-1.2,1.2-2.3,2.3-3.5,3.5l-1.3,0.4c-1.7-0.7-2.9-1.3-4.6-2.1h-0.8l-0.8-0.8l-1-0.7
		c-1.4-1.4-2.9-2.7-4.1-4.3l-1.3,0.5l-3.4,2.2l-2.5,1.6l-0.8,2.8l-0.3,2.1l1.2,0.9l1.6,2.5l0.1,2.4c2,2.5,2,2.7,3.9,5.8l1.9,1.5
		c0.3,0.2,0.7,0.3,1,0.4l0,0l1.6,0.7l0.1,0.2l0.8-1l0.5-2.6l1.4-2c2.3,0.8,3,1.1,5.3,2.2l3.3-0.4l2.2,2L259.5,126L259.5,126z"/>
</g>
<g id="lebong">
	<path class="st0" d="M199.1,66.9c0,0.1,0,0.3-0.1,0.4c0,0.1,0,0.2,0,0.3c0,0.1,0,0.3,0,0.5c0,0.2,0.1,0.4,0.3,0.7
		c0.2,0.4,0.6,0.7,1,1c0.7,0.6,1.5,1.2,1.3,2.4l0,0.2c-0.2,1.4,0.2,2.4,0.2,2.5l0.8,1.8l2.7,1.1c0.5,1,1,1.9,1.5,2.9l2.5,2.2
		c0.5,0.8,1,1.7,1.5,2.5l0,0.1l0,0l-0.6,2l0.1,2.3l0,0l0,0.1c-0.5,1.4-1,2.7-1.5,4.1L211,96l1.2,2.1l2.4-0.6l2.5,0.8l3.5,3.2
		l2.9,1.5c0.3,1.4,0.7,2.8,1,4.3l0,0l0,0.1l-2.2,1.2l-0.3,0.9l3.4,1.1l4.4,1.3l1.3-0.8l0.8-2.9c2.3-1.5,4.8-3.4,7.3-4.5l-0.6-0.9
		c-0.7-0.3-1.4-0.7-2-1l-1.2-1.2v-1l0.4-0.4l0.3-0.7l0.3-0.3l0.3-0.6l0.3-3.1c0.3-0.8,0.6-1.5,1-2.3c-0.3-0.6-0.3-0.8-0.6-1.5
		c-2.1-1.4-2.6-1.9-4.4-3.7c-2.1-0.7-4.3-1.3-6.4-2h-0.5l-0.6,0.6l-0.7,0.7l-0.8,0.4l-0.8,0c-0.5-0.1-1-0.3-1.5-0.4l-1.7-1h-2.1
		l-0.7-0.4l-1.1-0.4c-0.8-1.2-1.7-2.4-2.5-3.6c-0.2-0.5-0.4-1.1-0.5-1.6h1.2l1.4-0.3h0.3l-0.3-1.9l-0.3-1.3l-0.6-0.6l-1.7-1
		c-1.6-1.6-3.3-3.3-4.9-4.9l-1.4-3.1l-0.6-1l-1-1l-2.4-1.7l-1.7-2.4l-0.6-0.6l-2.4-0.3l-3.1-2.1l-2.9-1c0.1,0.2,0.1,0.5,0.2,0.7
		c0.1,0.4,0.3,0.7,0.4,0.9c0.2,0.3,0.3,0.5,0.5,0.7c0.7,1,1.3,2,1.5,3.4c0.1,0.7,0.3,1.2,0.6,1.6c0.3,0.4,0.8,0.6,1.5,0.8
		c0.9,0.3,1.4,0.6,1.7,1c0.3,0.4,0.4,0.9,0.4,1.4l0,0.2L199.1,66.9L199.1,66.9z"/>
</g>
<g id="bengkuluutara">
	<path class="st0" d="M222.1,138.4l2.3-3.8l1.6-4.7l4,0.5l3.4,0.2l3.1-0.7l2.2-0.6l1.4-1.8l-0.2-0.1l-2.1-1.7l-2.2-3.7l-1.8-2.3
		l-0.1-2.5l-1.4-2.2l-1.5-1.1l0.3-1.9l-1,0.6c-3-0.9-5.9-1.8-8.9-2.8l0.7-2l2-1l-0.3-1.4l-0.5-1.9l-2.7-1.4l-3.4-3.2l-2.2-0.7
		l-2.8,0.7l-1.5-2.5l-2.6-2.1l0.8-2.2l0.8-2.3l-0.1-2.3l0.6-1.9l-1.2-2.1l-2.5-2.2l-0.8-1.5l-0.7-1.2l-2.7-1.1
		c-0.3-0.7-0.7-1.4-0.9-2.1c0,0-0.5-1.3-0.3-3.1c0.1-0.8-0.4-1.3-1-1.7c-0.4-0.4-0.9-0.7-1.2-1.3c-0.5-1-0.4-1.5-0.3-2
		c0-0.2,0.1-0.4,0.1-0.6c0-0.3,0-0.6-0.2-0.9c-0.2-0.3-0.6-0.5-1.3-0.7c-0.9-0.3-1.5-0.6-1.9-1.1c-0.4-0.5-0.6-1.1-0.8-2
		c-0.2-1.2-0.8-2.1-1.4-3c-0.2-0.3-0.4-0.5-0.5-0.8c-0.2-0.3-0.4-0.7-0.5-1.1c-0.1-0.3-0.2-0.7-0.3-1l-0.9,0l-1.7,0.7h-1.2l-0.8-0.3
		c-0.5,0.9-1.1,2.1-1.7,3.2c-0.6,1.2-1.1,2.2-1.3,2.8l0,0c-0.5,1.3-0.7,2.3-1.2,3.8l-0.3,1.2c-0.6,2.4-3.7,6.8-3.8,6.8l0,0
		c0,0-5.9,7.7-6.2,8.7c-0.2,0.6-1,1.3-1.9,2c-1.1,0.8-2.6,1.5-3.6,2c-0.9,0.3-1.4,0.7-1.7,1c-0.3,0.3-0.3,0.7-0.3,1.1
		c0.1,0.7-0.2,1.5-0.7,2.2c-0.4,0.6-1.1,1.2-1.8,1.5c-0.3,0.1-0.7,0.5-1.1,1.1c-0.4,0.5-0.8,1.2-1.1,1.8l1.7,2.9l2,2l21.3,15.1
		l16.5,11.4l13.8,8.3l1.1,1.5c0.4,1.8,0.5,2.7,0.7,4.6l0.4-0.3L222.1,138.4L222.1,138.4z"/>
</g>
<g id="mukomuko">
	<path class="st0" d="M171.5,82.6c0.4-1.2,6-8.5,6.3-9l0,0c0.2-0.2,3-4.3,3.6-6.5l0.3-1.2c0.2-0.8,0.4-1.5,0.6-2.1
		c0.2-0.6,0.4-1.2,0.6-1.9c0.1-0.3,0.3-0.7,0.5-1.2c0.3-0.5,0.5-1.1,0.8-1.7c0.3-0.6,0.6-1.2,0.9-1.8l0.8-1.5l-1.4-1.7l-1-1l-2-0.6
		l-1.4-0.4c-1.6-0.8-3.3-1.6-4.9-2.4c-3.1-2.4-3.5-2.8-6.3-5.6l-1.7-3.1l-3.1-2.8l-0.7-2.1l-0.6-1l-1.3-1.3l-2.7-1l-1.2-0.8
		l-0.8-1.5l-2.4-8.6l-1.4-2.4l-0.4-1.5v-0.2l-0.5-0.5l-1-0.6l-1.4-0.7l-3.4-3.4l-0.5-0.3l-1.5,0l-7.2,5.1l-2.8,0.7
		c-2.8,2-3.2,2.4-5.9,3.8l-4.2,1l-1.6,0.7l-7.9,5.8l-4.5,3.9l6.6,9l3,2.7l3.4,2c4.5,2.3,6.8,3.3,10.7,5.9c0.8,0.9,1.6,1.9,2.5,2.8
		c2.4,4.3,4.9,8.5,7.3,12.8l1,3.8l12.7,20.5l1.7,1.4l0.2,0.3l0.3-0.4c0.2-0.3,0.4-0.7,0.7-1c0.3-0.3,0.5-0.7,0.8-0.9
		c0.3-0.2,0.5-0.4,0.8-0.5c0.3-0.1,0.5-0.2,0.7-0.4c0.2-0.2,0.5-0.4,0.6-0.7c0.2-0.3,0.3-0.6,0.4-0.8c0.1-0.3,0.1-0.5,0.1-0.7
		c0-0.3,0-0.7,0-0.9c0.1-0.3,0.2-0.6,0.4-0.9c0.2-0.2,0.5-0.5,0.8-0.7c0.3-0.2,0.7-0.4,1.2-0.6c0.5-0.2,1.1-0.5,1.7-0.8
		c0.6-0.3,1.2-0.7,1.7-1c0.4-0.3,0.8-0.6,1.1-0.9C171.3,83,171.4,82.8,171.5,82.6L171.5,82.6z"/>
</g>
</svg>
